{
    "asset" : {
        "generator" : "Khronos glTF Blender I/O v3.2.43",
        "version" : "2.0"
    },
    "extensionsUsed" : [
        "KHR_materials_clearcoat"
    ],
    "scene" : 0,
    "scenes" : [
        {
            "name" : "Scene",
            "nodes" : [
                14
            ]
        }
    ],
    "nodes" : [
        {
            "mesh" : 0,
            "name" : "Null__0"
        },
        {
            "mesh" : 1,
            "name" : "Null_Mat.4_0"
        },
        {
            "mesh" : 2,
            "name" : "Null_Mat.5_0"
        },
        {
            "children" : [
                0,
                1,
                2
            ],
            "name" : "Null"
        },
        {
            "name" : "Object_17"
        },
        {
            "children" : [
                4
            ],
            "name" : "Object_16",
            "rotation" : [
                0.7071068286895752,
                0,
                0,
                0.7071067094802856
            ]
        },
        {
            "children" : [
                5
            ],
            "name" : "OctaneDayLight",
            "rotation" : [
                -1,
                0,
                0,
                5.053215392444312e-16
            ],
            "translation" : [
                2.798341751098633,
                -23.881946563720703,
                -127.61557006835938
            ]
        },
        {
            "name" : "Object_20",
            "translation" : [
                9.1552734375e-05,
                -9.1552734375e-05,
                0
            ]
        },
        {
            "children" : [
                7
            ],
            "name" : "Object_19",
            "rotation" : [
                0.7071068286895752,
                0,
                0,
                0.7071067094802856
            ],
            "translation" : [
                -3.0517578125e-05,
                0,
                0
            ]
        },
        {
            "children" : [
                8
            ],
            "name" : "OctaneLight",
            "rotation" : [
                0.9396926164627075,
                0,
                0.342020183801651,
                2.6619325915512592e-16
            ],
            "translation" : [
                -1064.927001953125,
                -23.881946563720703,
                334.0849304199219
            ]
        },
        {
            "children" : [
                6,
                9
            ],
            "name" : "Null_2",
            "translation" : [
                -2.798341751098633,
                23.88194465637207,
                127.61555480957031
            ]
        },
        {
            "children" : [
                3,
                10
            ],
            "name" : "Connect"
        },
        {
            "children" : [
                11
            ],
            "name" : "RootNode"
        },
        {
            "children" : [
                12
            ],
            "name" : "154a149fab2a4aef8424e8d0e100df93.fbx",
            "rotation" : [
                0.7071068286895752,
                0,
                0,
                0.7071067094802856
            ]
        },
        {
            "children" : [
                13
            ],
            "name" : "Sketchfab_model",
            "rotation" : [
                -0.7071068286895752,
                0,
                0,
                0.7071067094802856
            ],
            "scale" : [
                0.0021590350661426783,
                0.002159035298973322,
                0.002159035298973322
            ]
        }
    ],
    "materials" : [
        {
            "doubleSided" : true,
            "name" : "Null__0.001",
            "pbrMetallicRoughness" : {
                "metallicFactor" : 0,
                "roughnessFactor" : 0.6000000238418579
            }
        },
        {
            "doubleSided" : true,
            "extensions" : {
                "KHR_materials_clearcoat" : {
                    "clearcoatFactor" : 1,
                    "clearcoatRoughnessFactor" : 0.03999999910593033
                }
            },
            "name" : "Mat.016",
            "pbrMetallicRoughness" : {
                "baseColorFactor" : [
                    0.1196260005235672,
                    0.4128729999065399,
                    0.8846189975738525,
                    1
                ],
                "metallicFactor" : 0,
                "roughnessFactor" : 0.9524317383766174
            }
        },
        {
            "doubleSided" : true,
            "emissiveFactor" : [
                0.8299999833106995,
                0.049800001084804535,
                0.7909899950027466
            ],
            "name" : "Mat.013",
            "pbrMetallicRoughness" : {
                "metallicFactor" : 0,
                "roughnessFactor" : 0.9524317383766174
            }
        }
    ],
    "meshes" : [
        {
            "name" : "Null__0.001",
            "primitives" : [
                {
                    "attributes" : {
                        "POSITION" : 0,
                        "NORMAL" : 1,
                        "TEXCOORD_0" : 2
                    },
                    "indices" : 3,
                    "material" : 0
                }
            ]
        },
        {
            "name" : "Null_Mat.4_0.001",
            "primitives" : [
                {
                    "attributes" : {
                        "POSITION" : 4,
                        "NORMAL" : 5,
                        "TEXCOORD_0" : 6
                    },
                    "indices" : 7,
                    "material" : 1
                }
            ]
        },
        {
            "name" : "Null_Mat.5_0.001",
            "primitives" : [
                {
                    "attributes" : {
                        "POSITION" : 8,
                        "NORMAL" : 9,
                        "TEXCOORD_0" : 10
                    },
                    "indices" : 11,
                    "material" : 2
                }
            ]
        }
    ],
    "accessors" : [
        {
            "bufferView" : 0,
            "componentType" : 5126,
            "count" : 51,
            "max" : [
                252.77996826171875,
                33.15070724487305,
                260.833984375
            ],
            "min" : [
                -259.20733642578125,
                -231.95872497558594,
                -251.1533203125
            ],
            "type" : "VEC3"
        },
        {
            "bufferView" : 1,
            "componentType" : 5126,
            "count" : 51,
            "type" : "VEC3"
        },
        {
            "bufferView" : 2,
            "componentType" : 5126,
            "count" : 51,
            "type" : "VEC2"
        },
        {
            "bufferView" : 3,
            "componentType" : 5123,
            "count" : 63,
            "type" : "SCALAR"
        },
        {
            "bufferView" : 4,
            "componentType" : 5126,
            "count" : 4782,
            "max" : [
                325.3913269042969,
                336.0722351074219,
                280.17742919921875
            ],
            "min" : [
                -328.6676330566406,
                -270.1079406738281,
                -350.69122314453125
            ],
            "type" : "VEC3"
        },
        {
            "bufferView" : 5,
            "componentType" : 5126,
            "count" : 4782,
            "type" : "VEC3"
        },
        {
            "bufferView" : 6,
            "componentType" : 5126,
            "count" : 4782,
            "type" : "VEC2"
        },
        {
            "bufferView" : 7,
            "componentType" : 5123,
            "count" : 11124,
            "type" : "SCALAR"
        },
        {
            "bufferView" : 8,
            "componentType" : 5126,
            "count" : 10074,
            "max" : [
                278.4435119628906,
                312.53045654296875,
                277.9460754394531
            ],
            "min" : [
                -275.9456481933594,
                28.405900955200195,
                -327.5889587402344
            ],
            "type" : "VEC3"
        },
        {
            "bufferView" : 9,
            "componentType" : 5126,
            "count" : 10074,
            "type" : "VEC3"
        },
        {
            "bufferView" : 10,
            "componentType" : 5126,
            "count" : 10074,
            "type" : "VEC2"
        },
        {
            "bufferView" : 11,
            "componentType" : 5123,
            "count" : 58752,
            "type" : "SCALAR"
        }
    ],
    "bufferViews" : [
        {
            "buffer" : 0,
            "byteLength" : 612,
            "byteOffset" : 0
        },
        {
            "buffer" : 0,
            "byteLength" : 612,
            "byteOffset" : 612
        },
        {
            "buffer" : 0,
            "byteLength" : 408,
            "byteOffset" : 1224
        },
        {
            "buffer" : 0,
            "byteLength" : 126,
            "byteOffset" : 1632
        },
        {
            "buffer" : 0,
            "byteLength" : 57384,
            "byteOffset" : 1760
        },
        {
            "buffer" : 0,
            "byteLength" : 57384,
            "byteOffset" : 59144
        },
        {
            "buffer" : 0,
            "byteLength" : 38256,
            "byteOffset" : 116528
        },
        {
            "buffer" : 0,
            "byteLength" : 22248,
            "byteOffset" : 154784
        },
        {
            "buffer" : 0,
            "byteLength" : 120888,
            "byteOffset" : 177032
        },
        {
            "buffer" : 0,
            "byteLength" : 120888,
            "byteOffset" : 297920
        },
        {
            "buffer" : 0,
            "byteLength" : 80592,
            "byteOffset" : 418808
        },
        {
            "buffer" : 0,
            "byteLength" : 117504,
            "byteOffset" : 499400
        }
    ],
    "buffers" : [
        {
            "byteLength" : 616904,
            "uri" : "data:application/octet-stream;base64,"
        }
    ]
}
