{
    "asset" : {
        "generator" : "Khronos glTF Blender I/O v3.2.43",
        "version" : "2.0"
    },
    "scene" : 0,
    "scenes" : [
        {
            "name" : "Scene",
            "nodes" : [
                1
            ]
        }
    ],
    "nodes" : [
        {
            "mesh" : 0,
            "name" : "Null.001"
        },
        {
            "children" : [
                0
            ],
            "name" : "Connect.001",
            "rotation" : [
                0.7071068286895752,
                0,
                0,
                0.7071067094802856
            ],
            "scale" : [
                0.009999999776482582,
                0.009999999776482582,
                0.009999999776482582
            ]
        }
    ],
    "materials" : [
        {
            "doubleSided" : true,
            "name" : "Mat.006",
            "pbrMetallicRoughness" : {
                "baseColorFactor" : [
                    0.10659898817539215,
                    0.10659898817539215,
                    0.10659898817539215,
                    1
                ],
                "metallicFactor" : 0,
                "roughnessFactor" : 0.4343145787715912
            }
        },
        {
            "doubleSided" : true,
            "name" : "Mat",
            "pbrMetallicRoughness" : {
                "baseColorFactor" : [
                    0.800000011920929,
                    0.800000011920929,
                    0.800000011920929,
                    1
                ],
                "metallicFactor" : 0,
                "roughnessFactor" : 0.4343145787715912
            }
        },
        {
            "doubleSided" : true,
            "name" : "Mat.009",
            "pbrMetallicRoughness" : {
                "baseColorFactor" : [
                    0.9100000262260437,
                    0.20262666046619415,
                    0.10920000076293945,
                    1
                ],
                "metallicFactor" : 0,
                "roughnessFactor" : 0.4343145787715912
            }
        },
        {
            "doubleSided" : true,
            "name" : "Mat.010",
            "pbrMetallicRoughness" : {
                "baseColorFactor" : [
                    0.6299999952316284,
                    0.3139500021934509,
                    0.08820000290870667,
                    1
                ],
                "metallicFactor" : 0,
                "roughnessFactor" : 0.4343145787715912
            }
        }
    ],
    "meshes" : [
        {
            "name" : "Mesh",
            "primitives" : [
                {
                    "attributes" : {
                        "POSITION" : 0,
                        "NORMAL" : 1,
                        "TEXCOORD_0" : 2
                    },
                    "indices" : 3,
                    "material" : 0
                },
                {
                    "attributes" : {
                        "POSITION" : 4,
                        "NORMAL" : 5,
                        "TEXCOORD_0" : 6
                    },
                    "indices" : 7,
                    "material" : 1
                },
                {
                    "attributes" : {
                        "POSITION" : 8,
                        "NORMAL" : 9,
                        "TEXCOORD_0" : 10
                    },
                    "indices" : 11,
                    "material" : 2
                },
                {
                    "attributes" : {
                        "POSITION" : 12,
                        "NORMAL" : 13,
                        "TEXCOORD_0" : 14
                    },
                    "indices" : 15,
                    "material" : 3
                }
            ]
        }
    ],
    "accessors" : [
        {
            "bufferView" : 0,
            "componentType" : 5126,
            "count" : 972,
            "max" : [
                19.225908279418945,
                62.464073181152344,
                -167.408447265625
            ],
            "min" : [
                -5.659529209136963,
                -0.5000272989273071,
                -227.55364990234375
            ],
            "type" : "VEC3"
        },
        {
            "bufferView" : 1,
            "componentType" : 5126,
            "count" : 972,
            "type" : "VEC3"
        },
        {
            "bufferView" : 2,
            "componentType" : 5126,
            "count" : 972,
            "type" : "VEC2"
        },
        {
            "bufferView" : 3,
            "componentType" : 5123,
            "count" : 4755,
            "type" : "SCALAR"
        },
        {
            "bufferView" : 4,
            "componentType" : 5126,
            "count" : 694,
            "max" : [
                32.04144287109375,
                59.534149169921875,
                -171.9544677734375
            ],
            "min" : [
                -23.100934982299805,
                28.12711524963379,
                -234.76568603515625
            ],
            "type" : "VEC3"
        },
        {
            "bufferView" : 5,
            "componentType" : 5126,
            "count" : 694,
            "type" : "VEC3"
        },
        {
            "bufferView" : 6,
            "componentType" : 5126,
            "count" : 694,
            "type" : "VEC2"
        },
        {
            "bufferView" : 7,
            "componentType" : 5123,
            "count" : 3240,
            "type" : "SCALAR"
        },
        {
            "bufferView" : 8,
            "componentType" : 5126,
            "count" : 5176,
            "max" : [
                51.35036849975586,
                51.50357437133789,
                -73.9813232421875
            ],
            "min" : [
                -51.35036849975586,
                -51.35039520263672,
                -277.809814453125
            ],
            "type" : "VEC3"
        },
        {
            "bufferView" : 9,
            "componentType" : 5126,
            "count" : 5176,
            "type" : "VEC3"
        },
        {
            "bufferView" : 10,
            "componentType" : 5126,
            "count" : 5176,
            "type" : "VEC2"
        },
        {
            "bufferView" : 11,
            "componentType" : 5123,
            "count" : 11214,
            "type" : "SCALAR"
        },
        {
            "bufferView" : 12,
            "componentType" : 5126,
            "count" : 922,
            "max" : [
                50.00572967529297,
                59.54854202270508,
                -67.40847778320312
            ],
            "min" : [
                -50,
                -50.00002670288086,
                -267.408447265625
            ],
            "type" : "VEC3"
        },
        {
            "bufferView" : 13,
            "componentType" : 5126,
            "count" : 922,
            "type" : "VEC3"
        },
        {
            "bufferView" : 14,
            "componentType" : 5126,
            "count" : 922,
            "type" : "VEC2"
        },
        {
            "bufferView" : 15,
            "componentType" : 5123,
            "count" : 4944,
            "type" : "SCALAR"
        }
    ],
    "bufferViews" : [
        {
            "buffer" : 0,
            "byteLength" : 11664,
            "byteOffset" : 0
        },
        {
            "buffer" : 0,
            "byteLength" : 11664,
            "byteOffset" : 11664
        },
        {
            "buffer" : 0,
            "byteLength" : 7776,
            "byteOffset" : 23328
        },
        {
            "buffer" : 0,
            "byteLength" : 9510,
            "byteOffset" : 31104
        },
        {
            "buffer" : 0,
            "byteLength" : 8328,
            "byteOffset" : 40616
        },
        {
            "buffer" : 0,
            "byteLength" : 8328,
            "byteOffset" : 48944
        },
        {
            "buffer" : 0,
            "byteLength" : 5552,
            "byteOffset" : 57272
        },
        {
            "buffer" : 0,
            "byteLength" : 6480,
            "byteOffset" : 62824
        },
        {
            "buffer" : 0,
            "byteLength" : 62112,
            "byteOffset" : 69304
        },
        {
            "buffer" : 0,
            "byteLength" : 62112,
            "byteOffset" : 131416
        },
        {
            "buffer" : 0,
            "byteLength" : 41408,
            "byteOffset" : 193528
        },
        {
            "buffer" : 0,
            "byteLength" : 22428,
            "byteOffset" : 234936
        },
        {
            "buffer" : 0,
            "byteLength" : 11064,
            "byteOffset" : 257364
        },
        {
            "buffer" : 0,
            "byteLength" : 11064,
            "byteOffset" : 268428
        },
        {
            "buffer" : 0,
            "byteLength" : 7376,
            "byteOffset" : 279492
        },
        {
            "buffer" : 0,
            "byteLength" : 9888,
            "byteOffset" : 286868
        }
    ],
    "buffers" : [
        {
            "byteLength" : 296756,
            "uri" : "data:application/octet-stream;base64,"
        }
    ]
}
